<?xml version="1.0" encoding="utf-8"?>
<svg height="20" width="18" viewBox="0 0 1000 1071.429" xmlns="http://www.w3.org/2000/svg"><path d="M535.68 375.04q66.402 0 113.553 47.151t47.151 113.553 -47.151 113.553 -113.553 47.151 -113.553 -47.151 -47.151 -113.553 47.151 -113.553 113.553 -47.151zm392.832 -232.128q59.148 0 100.998 41.85t41.85 100.998v499.968q0 59.148 -41.85 100.998t-100.998 41.85h-785.664q-59.148 0 -100.998 -41.85t-41.85 -100.998v-499.968q0 -59.148 41.85 -100.998t100.998 -41.85h124.992l28.458 -75.888q10.602 -27.342 38.781 -47.151t57.753 -19.809h285.696q29.574 0 57.753 19.809t38.781 47.151l28.458 75.888h124.992zm-392.832 642.816q103.23 0 176.607 -73.377t73.377 -176.607 -73.377 -176.607 -176.607 -73.377 -176.607 73.377 -73.377 176.607 73.377 176.607 176.607 73.377z" fill="lightgrey"/></svg>
