<?xml version="1.0" encoding="UTF-8" standalone="no"?>
<!-- Created with Inkscape (http://www.inkscape.org/) -->
<svg
   version="1.0"
   width="18"
   height="20"
   viewBox="0 0 360 360"
   id="svg2">
  <circle cx="180" cy="180" r="180" fill="#FF6600" />
  <g transform="translate(10, 120) scale(0.5, 0.5)">
    <g>
      <path
         id="path1966"
	 fill="black"
         d="M 31.761217,26.619391 L 31.306216,5.7140301 C 31.754181,4.3093648 31.994305,2.6968585 33.909231,2.7591539 L 628.71325,2.3775139 C 655.69631,7.7477606 661.04445,77.952922 675,117.14286 L 675,202.14286 C 668.20192,218.11846 660.86056,219.42544 653.57143,222.14286 L 565,221.42857 C 565,144.20059 447.85714,144.63084 447.85714,221.42857 L 210,221.42857 C 210,144.48294 95.714286,144.46188 95.714286,221.42857 L 13.571429,221.42857 C 9.6780696,220.28672 7.0245746,216.66514 4.6428571,212.5 L 5.5969572,136.28675 L 40.376483,35.905105 C 41.587822,29.237159 34.6359,29.712067 31.761217,26.619391 z " />
      <path
         id="path2856"
	 fill="black"
         transform="matrix(1.08125,0,0,1.08125,-58.95434,-28.22524)"
         d="M 566.16677,231.14012 C 566.17704,254.99373 546.84274,274.33634 522.98914,274.33634 C 499.13553,274.33634 479.80123,254.99373 479.8115,231.14012 C 479.80123,207.28651 499.13553,187.9439 522.98914,187.9439 C 546.84274,187.9439 566.17704,207.28651 566.16677,231.14012 L 566.16677,231.14012 z " />
      <path
         id="path3745"
	  fill="black"
         transform="matrix(1.08125,0,0,1.08125,-412.2014,-27.95538)"
         d="M 566.16677,231.14012 C 566.17704,254.99373 546.84274,274.33634 522.98914,274.33634 C 499.13553,274.33634 479.80123,254.99373 479.8115,231.14012 C 479.80123,207.28651 499.13553,187.9439 522.98914,187.9439 C 546.84274,187.9439 566.17704,207.28651 566.16677,231.14012 L 566.16677,231.14012 z " />
      <path
         id="path3747"
	 fill="#FF6600"
         d="M 531.61675,40.718007 L 552.142,110.69117 C 553.35031,113.54485 554.53622,116.41596 557.8805,117.60833 L 629.04027,117.43371 C 631.87882,114.96101 634.80496,112.64856 635.25102,107.54413 L 615.09087,37.58684 C 613.44354,32.067784 611.173,30.495693 608.80472,29.542611 L 536.28374,29.633887 C 532.7483,31.744775 531.50679,35.690805 531.61675,40.718007 z " />
      <path
         id="path4634"
	 fill="#FF6600"
         d="M 429.39705,40.58628 L 449.9223,110.55944 C 451.13061,113.41312 452.31652,116.28423 455.6608,117.4766 L 526.82057,117.30198 C 529.65912,114.82928 532.58526,112.51683 533.03132,107.4124 L 512.87117,37.455113 C 511.22384,31.936057 508.9533,30.363966 506.58502,29.410884 L 434.06404,29.50216 C 430.5286,31.613048 429.28709,35.559078 429.39705,40.58628 z " />
      <path
         id="path4636"
	 fill="#FF6600"
         d="M 327.98862,40.586273 L 348.51387,110.55944 C 349.72218,113.41312 350.90809,116.28423 354.25237,117.4766 L 425.41214,117.30198 C 428.25069,114.82928 431.17683,112.51683 431.62289,107.4124 L 411.46274,37.455106 C 409.81541,31.93605 407.54487,30.363959 405.17659,29.410877 L 332.65561,29.502153 C 329.12017,31.613041 327.87866,35.559071 327.98862,40.586273 z " />
      <path
         id="path4638"
	 fill="#FF6600"
         d="M 227.1726,40.586276 L 247.69785,110.55944 C 248.90616,113.41312 250.09207,116.28423 253.43635,117.4766 L 324.59612,117.30198 C 327.43467,114.82928 330.36081,112.51683 330.80687,107.4124 L 310.64672,37.455109 C 308.99939,31.936053 306.72885,30.363962 304.36057,29.41088 L 231.83959,29.502156 C 228.30415,31.613044 227.06264,35.559074 227.1726,40.586276 z " />
      <path
         id="path4640"
	 fill="#FF6600"
         d="M 142.51433,35.694816 L 142.50232,110.96203 C 143.71063,113.81571 145.80931,116.50427 149.15359,117.69664 L 223.05166,117.43074 C 225.89021,114.95804 228.81635,112.64559 229.26241,107.54116 L 209.10226,37.583869 C 207.45493,32.064813 205.18439,30.492722 202.81611,29.53964 L 148.00281,29.448363 C 144.46737,31.559251 143.68225,31.580382 142.51433,35.694816 z " />
      <path
          id="path4642"
	 fill="#FF6600"
         d="M 124.8189,37.998446 L 124.68904,110.81147 C 123.48073,113.66515 122.29482,116.53626 118.95054,117.72863 L 35.269552,117.29584 C 32.431002,114.82314 29.504862,112.51069 29.058802,107.40626 L 54.124173,37.707145 C 55.771503,32.188089 58.04204,30.615998 60.41032,29.662916 L 120.15191,29.883276 C 123.68735,31.994164 124.92886,32.971244 124.8189,37.998446 z " />
    </g>
  </g>
</svg>
