<?xml version="1.0" encoding="utf-8"?>
<!-- Generator: Adobe Illustrator 14.0.0, SVG Export Plug-In . SVG Version: 6.00 Build 43363)  -->
<!DOCTYPE svg PUBLIC "-//W3C//DTD SVG 1.1//EN" "http://www.w3.org/Graphics/SVG/1.1/DTD/svg11.dtd">
<svg version="1.1" id="icon" xmlns="http://www.w3.org/2000/svg" xmlns:xlink="http://www.w3.org/1999/xlink" x="0px" y="0px"
	 width="18" height="20" viewBox="0 0 1024 1024" enable-background="new 0 0 1024 1024" xml:space="preserve">
<path fill="#000" d="M512,64c-185.281,0-336,150.719-336,336c0,70.587,21.958,138.304,63.424,195.891l8.818,12.359
	l241.363,340.54C494.896,955.844,503.209,960,512,960c8.79,0,17.104-4.156,22.395-11.21L772.75,612.297L784.509,596
	C826.043,538.304,848,470.587,848,400C848,214.719,697.281,64,512,64z M512,512c-61.77,0-112-50.23-112-112
	c0-61.77,50.23-112,112-112s112,50.23,112,112C624,461.77,573.77,512,512,512z"/>
</svg>
