<?xml version="1.0" encoding="UTF-8" standalone="no"?>
<!-- Created with Inkscape (http://www.inkscape.org/) -->

<svg
   width="18"
   height="20"
   id="svg2"
   version="1.1">
  <g
     transform="translate(0,-1032.3622)">
    <g
       id="g5923"
       transform="matrix(0.4018277,0,0,0.4018277,-49.853051,1799.446)">
      <path
	 id="path3423"
	 d="m 133.57545,-1861.2654 c -0.28766,-1.1 -0.92053,-2 -1.40638,-2 -1.15882,0 -1.10068,-33.3576 0.0669,-38.3907 1.46995,-6.3366 2.8884,-7.1093 13.04972,-7.1093 10.16132,0 11.57977,0.7727 13.04972,7.1093 1.16759,5.0331 1.22573,38.3907 0.0669,38.3907 -0.48585,0 -1.11872,0.9 -1.40638,2 -0.28766,1.1 -1.05727,2 -1.71025,2 -0.65298,0 -1.4226,-0.9 -1.71025,-2 l -0.52301,-2 -7.76674,0 -7.76674,0 -0.52301,2 c -0.28765,1.1 -1.05727,2 -1.71025,2 -0.65298,0 -1.4226,-0.9 -1.71025,-2 z"
	 fill="#000"/>
      <path
	 id="path3421"
	 d="m 137.2857,-1869.2654 c 0,-1.3334 -0.66667,-2 -2,-2 -1.33333,0 -2,0.6666 -2,2 0,1.3333 0.66667,2 2,2 1.33333,0 2,-0.6667 2,-2 z"
	 fill="#ffffff"/>
      <path
	 id="path3419"
	 d="m 156.83955,-1868.3526 c 1.03052,-1.6674 -1.28721,-3.5795 -2.66672,-2.2 -1.15392,1.154 -0.43172,3.2872 1.11287,3.2872 0.48508,0 1.18431,-0.4892 1.55385,-1.0872 z"
	 fill="#ffffff"/>
      <path
	 id="path3417"
	 d="m 157.2857,-1878.2654 0,-5 -12,0 -12,0 0,3.468 c 0,5.0476 3.16768,6.4418 14.75,6.4919 l 9.25,0.04 0,-5 z"
	 fill="#ffffff"/>
      <path
	 id="path3415"
	 d="m 157.2857,-1889.2654 0,-2 -12,0 -12,0 0,2 0,2 12,0 12,0 0,-2 z"
	 fill="#ffffff"/>
      <path
	 id="path3413"
	 d="m 156.65277,-1900.2654 c -0.34636,-1.925 -0.8222,-3.8375 -1.05743,-4.25 -0.23522,-0.4125 -4.87456,-0.75 -10.30964,-0.75 -5.43508,0 -10.07442,0.3375 -10.30964,0.75 -0.23523,0.4125 -0.71107,2.325 -1.05743,4.25 l -0.62976,3.5 11.99683,0 11.99683,0 -0.62976,-3.5 z"
	 fill="#ffffff"/>
    </g>
  </g>
</svg>
