<?xml version="1.0" encoding="UTF-8" standalone="no"?>
<!-- Created with Inkscape (http://www.inkscape.org/) -->

<svg
   xmlns:dc="http://purl.org/dc/elements/1.1/"
   xmlns:cc="http://creativecommons.org/ns#"
   xmlns:rdf="http://www.w3.org/1999/02/22-rdf-syntax-ns#"
   xmlns:svg="http://www.w3.org/2000/svg"
   xmlns="http://www.w3.org/2000/svg"
   xmlns:sodipodi="http://sodipodi.sourceforge.net/DTD/sodipodi-0.dtd"
   xmlns:inkscape="http://www.inkscape.org/namespaces/inkscape"
   id="svg3039"
   version="1.1"
   inkscape:version="0.48.4 r9939"
   width="18"
   height="20"
   sodipodi:docname="River_bus_icon.png">
  <metadata
     id="metadata3045">
    <rdf:RDF>
      <cc:Work
         rdf:about="">
        <dc:format>image/svg+xml</dc:format>
        <dc:type
           rdf:resource="http://purl.org/dc/dcmitype/StillImage" />
        <dc:title></dc:title>
      </cc:Work>
    </rdf:RDF>
  </metadata>
  <defs
     id="defs3043" />
  <sodipodi:namedview
     pagecolor="#ffffff"
     bordercolor="#666666"
     borderopacity="1"
     objecttolerance="10"
     gridtolerance="10"
     guidetolerance="10"
     inkscape:pageopacity="0"
     inkscape:pageshadow="2"
     inkscape:window-width="1920"
     inkscape:window-height="1025"
     id="namedview3041"
     showgrid="false"
     inkscape:zoom="13.68"
     inkscape:cx="-1.6014114"
     inkscape:cy="25.171672"
     inkscape:window-x="0"
     inkscape:window-y="27"
     inkscape:window-maximized="1"
     inkscape:current-layer="svg3039" />
  <g
     id="g3835"
     transform="matrix(0.01125,0,0,0.01125,0,0.99999993)">
    <path
       transform="matrix(0.99518731,0,0,0.99518731,-26.337416,41.84974)"
       d="m 1634.2023,761.81665 c 0,443.96445 -359.9043,803.86875 -803.86874,803.86875 -443.96447,0 -803.868777,-359.9043 -803.868777,-803.86875 0,-443.96446 359.904307,-803.868774 803.868777,-803.868774 443.96444,0 803.86874,359.904314 803.86874,803.868774 z"
       sodipodi:ry="803.86877"
       sodipodi:rx="803.86877"
       sodipodi:cy="761.81665"
       sodipodi:cx="830.33356"
       id="path3833"
       style="fill:#000099;fill-opacity:1;stroke:none"
       sodipodi:type="arc" />
    <path
       inkscape:connector-curvature="0"
       id="path3831"
       d="m 916.66458,1066.8012 c 45.11081,-2.899 75.83362,-8.4371 147.49992,-26.5882 83.9157,-21.2536 129.8014,-30.3188 180,-35.5608 15.7405,-1.6437 69.4733,-1.6167 92,0.046 68.8405,5.082 125.356,15.6831 162.9432,30.5646 6.2938,2.4919 11.5544,4.4194 11.6903,4.2835 0.4041,-0.4041 -30.4764,-81.94711 -31.3402,-82.75681 -1.184,-1.1099 -18.7036,-6.5333 -33.6332,-10.4115 -26.0206,-6.7594 -55.2235,-11.7612 -88.9684,-15.2383 -24.6424,-2.5392 -97.3615,-2.5178 -123.1917,0.036 -51.6659,5.1087 -95.207,13.4588 -147.5,28.2868 -90.74679,25.7319 -162.54727,35.7834 -232.26831,32.5157 -56.42597,-2.6446 -99.01812,-8.9404 -174.23158,-25.7542 -126.48318,-28.2751 -208.77088,-31.2196 -301.50008,-10.7883 -8.525,1.8783 -32.9332,7.9898 -54.2403,13.581 l -38.7404,10.1659 2.3168,3.0818 c 1.2743,1.695 11.4424,16.0346 22.5958,31.86571 15.2865,21.6978 20.6838,28.6577 21.9235,28.271 6.6381,-2.0705 49.9918,-12.0796 64.6446,-14.9245 59.9576,-11.641 113.4511,-13.6151 177,-6.532 26.7505,2.9816 52.48778,7.5934 107.50008,19.2627 101.93062,21.6219 135.76292,26.4367 190.49998,27.111 17.05,0.2101 37.29999,-0.023 44.99999,-0.5178 z M 1572.1486,912.53599 c -1.0682,-2.8541 -24.4174,-63.6892 -51.887,-135.1892 l -49.9448,-130 -55.2627,-0.5 -55.2628,-0.5 -26.1739,-68.6203 c -27.8573,-73.0338 -28.5719,-74.5855 -39.9529,-86.7577 -11.5219,-12.3228 -24.06,-19.0833 -40.9336,-22.0713 -3.9791,-0.7046 -57.5899,-1.0507 -162.75,-1.0507 l -156.81632,0 0,-27.49999 0,-27.5 -93.94846,0 -93.94841,0 -15.125,-21.12904 -15.1249,-21.12904 9.5285,-24.12096 c 5.2407,-13.26653 9.8248,-24.91616 10.187,-25.88807 0.6204,-1.66507 -0.831,-1.75169 -25.1323,-1.5 l -25.7908,0.26711 -19.6245,46.5 -19.6245,46.5 -35.68228,0.26261 -35.6823,0.26262 -0.2661,27.23738 -0.266,27.23739 -84,0.52039 c -82.1233,0.5088 -84.1644,0.5683 -91.3579,2.664 -9.2395,2.6918 -15.0837,5.7146 -24.473,12.6583 -6.895,5.0991 -11.6171,10.9559 -68.1787,84.5631 l -60.7708,79.0846 -98.78531,0.2548 -98.785393,0.2548 97.507993,133.5 c 53.62941,73.425 98.09911,134.3208 98.82161,135.324 1.2472,1.7319 2.0631,1.5644 16.1675,-3.3183 58.5657,-20.2745 143.511,-38.738 204.7646,-44.5071 18.2699,-1.7208 54.5191,-1.9512 72.0894,-0.4583 36.2551,3.0804 73.2826,8.9849 144.00008,22.9623 120.77569,23.8715 152.4577,28.0585 200.99998,26.5639 71.41898,-2.199 109.05671,-8.0998 203.49991,-31.9043 84.0074,-21.1741 116.7461,-27.0232 171.5,-30.6403 19.6448,-1.2978 62.8666,-1.2915 83.0171,0.012 79.9188,5.17 157.5487,24.6068 219.1961,54.882 l 16.2132,7.9623 -1.9423,-5.1891 z m -495.7421,-324.9644 -0.258,-58.7752 72.811,0.2752 72.8109,0.2752 7.6051,3.7592 c 8.7916,4.3456 15.793,11.3025 19.965,19.8378 2.1807,4.4614 17.2055,43.8045 32.903,86.1577 l 2.8741,7.7546 -104.2265,-0.2546 -104.2266,-0.2547 -0.258,-58.7752 z m -251.9999,0.025 -0.258,-58.75 100.50799,0 100.50791,0 0,59.0048 0,59.0048 -100.24992,-0.2548 -100.24999,-0.2548 -0.25799,-58.75 z m -251.24207,0.25 0,-59 100.50008,0 100.49998,0 0,22.8365 c 0,12.56 0.29796,39.11 0.66214,59 l 0.66213,36.1635 -101.16215,0 -101.16218,0 0,-59 z m -242.4184,55.25 c 11.2019,-14.9022 55.9087,-73.1835 60.7916,-79.25 10.8711,-13.5062 20.3762,-22.2201 29.1268,-26.7025 16.0617,-8.2273 16.5784,-8.2975 61.1053,-8.2975 l 39.3947,0 0,59 0,59 -96.6187,0 -96.6186,0 2.8189,-3.75 z"
       style="fill:#ffffff;fill-opacity:1" />
  </g>
</svg>
