<?xml version="1.0"?><svg width="18" height="20"
viewBox="0 0 744.09448819 1052.3622047" xmlns="http://www.w3.org/2000/svg">
 <title>walking man black</title>
 <metadata id="metadata12390">image/svg+xmlOther map symbolsMohamed IbrahimPublic Domainclker.comother map symbols</metadata>
 <g>
  <title>Layer 1</title>
  <g id="svg_1">
   <path d="m408.680481,206.147766c41.966217,3.399826 78.316895,-27.780182 81.716888,-69.598953c3.249664,-41.821426 -27.930084,-78.172165 -69.896301,-81.719315c-41.5242,-3.102509 -78.169678,28.0774 -81.274689,69.896271c-3.544647,41.524124 27.632751,78.172073 69.454102,81.421997" id="path4536" fill-rule="nonzero" fill="#000000"/>
   <path d="m344.399597,237.327682c14.925629,-10.491547 33.101013,-17.435944 53.344788,-15.664948c26.009033,2.070953 47.286926,18.177963 60.291412,37.829636l76.54599,151.762939l104.473511,71.96463c8.865234,6.796844 14.480713,17.878113 13.299255,29.99588c-1.478943,18.767334 -17.880676,32.806091 -36.648071,31.179871c-5.762878,-0.294861 -10.491516,-2.660339 -15.662415,-5.023621l-113.933319,-78.466797c-3.544647,-2.807678 -6.352386,-6.354828 -8.718079,-10.049316l-28.519531,-56.891785l-34.429749,151.318298l134.619232,159.002075c3.102417,4.876038 5.170593,10.638916 6.354858,16.401672l36.350708,191.955627c-0.294739,4.283997 0.294678,6.944336 0,10.344177c-2.06842,28.666931 -26.893311,49.355347 -55.118042,47.286926c-23.496277,-1.920959 -40.78476,-19.212036 -46.252777,-40.637268l-34.282593,-179.837769l-109.49942,-119.693604l-25.269531,116.591003c-0.884308,5.465637 -8.125916,16.993835 -10.194336,21.572632l-105.06546,177.03009c-10.344223,16.107056 -27.930054,26.451355 -47.879044,24.827576c-28.519547,-2.070862 -49.649994,-26.895813 -47.286942,-55.268005c0.592056,-7.978638 3.991798,-16.401794 6.946976,-22.164673l97.529007,-163.583496l81.422028,-360.559784l-53.199753,43.000458l-28.222275,128.411499c-3.841873,16.551758 -18.767441,29.998413 -36.353271,28.669678c-19.062119,-1.478943 -32.953491,-17.880798 -31.474655,-36.94281c0,-1.478943 0.294739,-2.955322 0.592026,-4.728943l33.395645,-149.691833c2.068314,-6.355011 5.468063,-12.117889 10.491547,-16.551819l152.35228,-123.388199z" id="path4538" fill-rule="nonzero" fill="#000000"/>
  </g>
 </g>
</svg>
